HIERARCHY
ROOT Hips
{
 OFFSET 0.000000 0.000000 0.000000
 CHANNELS 6 Xposition Yposition Zposition Yrotation Xrotation Zrotation
 JOINT Chest
 {
  OFFSET 0.000000 9.581000 -0.001100
  CHANNELS 3 Yrotation Xrotation Zrotation
  JOINT Chest2
  {
   OFFSET 0.000000 9.561100 0.002200
   CHANNELS 3 Yrotation Xrotation Zrotation
   JOINT Chest3
   {
    OFFSET 0.000000 9.521100 0.000000
    CHANNELS 3 Yrotation Xrotation Zrotation
    JOINT Chest4
    {
     OFFSET 0.000000 9.511400 0.000000
     CHANNELS 3 Yrotation Xrotation Zrotation
     JOINT Neck
     {
      OFFSET 0.000000 14.375100 0.000000
      CHANNELS 3 Yrotation Xrotation Zrotation
      JOINT Head
      {
       OFFSET 0.000000 8.901200 0.004600
       CHANNELS 3 Yrotation Xrotation Zrotation
       End Site
       {
        OFFSET 0.000000 16.962200 0.002400
       }
      }
     }
     JOINT RightCollar
     {
      OFFSET -2.920100 9.518800 0.000000
      CHANNELS 3 Yrotation Xrotation Zrotation
      JOINT RightShoulder
      {
       OFFSET -13.664500 0.000000 0.000000
       CHANNELS 3 Yrotation Xrotation Zrotation
       JOINT RightElbow
       {
        OFFSET 0.000000 -29.999200 0.000000
        CHANNELS 3 Yrotation Xrotation Zrotation
        JOINT RightWrist
        {
         OFFSET 0.000000 -24.253600 0.000000
         CHANNELS 3 Yrotation Xrotation Zrotation
         End Site
         {
          OFFSET 0.000000 -17.918900 0.000000
         }
        }
       }
      }
     }
     JOINT LeftCollar
     {
      OFFSET 2.920100 9.518800 0.000000
      CHANNELS 3 Yrotation Xrotation Zrotation
      JOINT LeftShoulder
      {
       OFFSET 13.664500 0.000000 0.000000
       CHANNELS 3 Yrotation Xrotation Zrotation
       JOINT LeftElbow
       {
        OFFSET 0.000000 -29.999200 0.000000
        CHANNELS 3 Yrotation Xrotation Zrotation
        JOINT LeftWrist
        {
         OFFSET 0.000000 -24.253600 0.000000
         CHANNELS 3 Yrotation Xrotation Zrotation
         End Site
         {
          OFFSET 0.000000 -17.918900 0.000000
         }
        }
       }
      }
     }
    }
   }
  }
 }
 JOINT RightHip
 {
  OFFSET -7.797300 0.005300 0.000500
  CHANNELS 3 Yrotation Xrotation Zrotation
  JOINT RightKnee
  {
   OFFSET 0.000000 -40.663400 -0.000500
   CHANNELS 3 Yrotation Xrotation Zrotation
   JOINT RightAnkle
   {
    OFFSET 0.000000 -39.523700 -0.000900
    CHANNELS 3 Yrotation Xrotation Zrotation
    JOINT RightToe
    {
     OFFSET 0.000000 -6.418000 14.485300
     CHANNELS 3 Yrotation Xrotation Zrotation
     End Site
     {
      OFFSET 0.000000 -1.465200 6.326400
     }
    }
   }
  }
 }
 JOINT LeftHip
 {
  OFFSET 7.797300 0.005300 0.000500
  CHANNELS 3 Yrotation Xrotation Zrotation
  JOINT LeftKnee
  {
   OFFSET 0.000000 -40.663400 -0.000500
   CHANNELS 3 Yrotation Xrotation Zrotation
   JOINT LeftAnkle
   {
    OFFSET 0.000000 -39.523700 -0.000900
    CHANNELS 3 Yrotation Xrotation Zrotation
    JOINT LeftToe
    {
     OFFSET 0.000000 -6.418000 14.485300
     CHANNELS 3 Yrotation Xrotation Zrotation
     End Site
     {
      OFFSET 0.000000 -1.465200 6.326400
     }
    }
   }
  }
 }
}
MOTION
Frames: 8
Frame Time: 0.008333
-15.276915 126.893888 17.497258 -179.399989 -48.309363 -4.515890 2.259492 26.200386 3.806744 0.254099 4.411683 0.549083 0.414586 7.013461 0.887378 1.667645 21.503127 3.003050 4.290458 14.216599 0.277823 4.461947 -10.730724 -0.667605 1.530217 1.672935 2.886796 2.768670 -10.275846 -11.262067 -117.150711 -66.866557 162.084435 8.161971 36.990184 3.066116 -11.187266 -1.412039 -0.209112 -6.332112 -11.456948 7.943457 58.813340 -62.235190 -99.971012 2.352927 14.989999 11.744495 -19.234301 -8.205808 0.102830 23.277659 81.308834 36.749604 25.705924 -24.492659 18.932624 0.006295 0.001526 0.002789 14.725317 -11.637589 -5.536064 4.820685 63.613265 -12.768011 2.557518 -1.546931 16.321216 -0.001260 0.002437 -0.000558
-15.277414 126.894251 17.497784 -179.388666 -48.316751 -4.522446 2.259373 26.204394 3.806362 0.257238 4.410041 0.546559 0.412698 7.015060 0.889229 1.697444 21.491519 2.988587 4.265415 14.218694 0.296019 4.453925 -10.729318 -0.658312 1.498536 1.681435 2.916287 2.752884 -10.267141 -11.260894 -117.387181 -66.871022 162.298091 8.231090 36.974998 3.119628 -11.275018 -1.436044 -0.217024 -6.284065 -11.413306 7.975942 58.845355 -62.365229 -99.818027 2.221734 14.915921 11.304993 -19.241394 -8.198956 0.098983 23.275112 81.305289 36.744337 25.695728 -24.493015 18.934673 0.004707 0.000711 0.002086 14.720259 -11.631448 -5.534151 4.841087 63.614299 -12.746073 2.546112 -1.540716 16.315603 -0.000371 0.002252 -0.000165
-15.277848 126.894366 17.498525 -179.383014 -48.322213 -4.525479 2.268137 26.202777 3.804221 0.249183 4.414924 0.551481 0.416808 7.013177 0.887019 1.704649 21.486825 2.986275 4.257899 14.216357 0.296701 4.445465 -10.726143 -0.651760 1.488399 1.664579 2.916032 2.735762 -10.237498 -11.248345 -117.671555 -66.873948 162.555457 8.331590 36.953553 3.204328 -11.363870 -1.477881 -0.264211 -6.217002 -11.354547 8.031275 58.964233 -62.528757 -99.692029 2.032106 14.864999 10.712394 -19.242970 -8.195169 0.095833 23.277348 81.305371 36.748210 25.677740 -24.498793 18.934378 0.002831 -0.002613 0.001254 14.717366 -11.626018 -5.532818 4.849762 63.611380 -12.736780 2.544653 -1.535058 16.312426 -0.001226 0.003026 -0.000543
-15.277349 126.894347 17.499462 -179.385206 -48.326365 -4.528346 2.278870 26.199421 3.804711 0.251172 4.413639 0.551212 0.429124 7.002717 0.878275 1.697301 21.501222 3.005565 4.261169 14.210104 0.293717 4.432203 -10.730330 -0.638880 1.479953 1.641502 2.910356 2.696917 -10.193997 -11.247032 -117.991080 -66.854434 162.865060 8.453869 36.919814 3.337494 -11.466762 -1.529807 -0.338133 -6.132087 -11.290181 8.106575 59.181634 -62.711047 -99.611750 1.812568 14.867220 9.953343 -19.241661 -8.191172 0.099110 23.267556 81.305753 36.735625 25.673461 -24.497774 18.934771 0.001468 -0.002891 0.000651 14.721119 -11.625538 -5.524505 4.844278 63.612208 -12.739208 2.545727 -1.531054 16.310663 -0.001918 0.002418 -0.000850
-15.277146 126.894212 17.500465 -179.378535 -48.329093 -4.535839 2.286110 26.194314 3.803114 0.260102 4.407496 0.546497 0.429367 7.002796 0.878671 1.698763 21.498549 3.007857 4.272290 14.214652 0.315143 4.436794 -10.728781 -0.615577 1.450661 1.601851 2.912907 2.691248 -10.138002 -11.231119 -118.312059 -66.838310 163.150756 8.616611 36.890515 3.528794 -11.596206 -1.570239 -0.414645 -6.015426 -11.197477 8.204551 59.570883 -62.897636 -99.673115 1.517780 14.971577 9.010949 -19.245438 -8.192308 0.099367 23.282755 81.306834 36.746574 25.682059 -24.484865 18.934289 0.002571 -0.002166 0.001139 14.718375 -11.624810 -5.517527 4.840263 63.609839 -12.738383 2.543463 -1.523888 16.305802 -0.000002 0.002848 -0.000001
-15.278278 126.894119 17.501285 -179.365601 -48.332461 -4.539498 2.291453 26.190713 3.796820 0.253211 4.410208 0.549520 0.429036 7.002230 0.877111 1.709861 21.490696 2.997525 4.294711 14.215120 0.347243 4.455120 -10.731809 -0.586155 1.432657 1.604306 2.933424 2.668967 -10.131475 -11.228063 -118.624171 -66.810174 163.433933 8.809554 36.883753 3.789237 -11.744422 -1.610321 -0.498317 -5.789210 -11.055554 8.344633 60.189323 -63.066445 -100.020422 1.100413 15.233914 7.887141 -19.252212 -8.194943 0.088211 23.315117 81.310547 36.778048 25.689644 -24.476750 18.931889 0.004355 -0.002787 0.001929 14.713191 -11.623088 -5.522283 4.840201 63.607134 -12.734124 2.548605 -1.505164 16.302772 -0.000251 0.004215 -0.000111
-15.277726 126.894094 17.502204 -179.359632 -48.335968 -4.547390 2.310469 26.181648 3.788516 0.246050 4.414649 0.559015 0.425747 7.004870 0.883065 1.732097 21.481976 2.963006 4.329987 14.210372 0.415918 4.491211 -10.740958 -0.551223 1.393522 1.577981 2.971531 2.643937 -10.101053 -11.208710 -118.833269 -66.786609 163.640136 8.982869 36.869124 4.088292 -11.910809 -1.636032 -0.557291 -5.565150 -10.957019 8.479743 60.892513 -63.227907 -100.391845 0.616409 15.666867 6.583063 -19.253987 -8.188746 0.089898 23.304036 81.310582 36.768999 25.684951 -24.477389 18.932384 0.003616 -0.003168 0.001602 14.711647 -11.625837 -5.516103 4.837410 63.609898 -12.731465 2.550469 -1.495487 16.299017 0.000176 0.002628 0.000078
-15.277991 126.894383 17.502725 -179.354623 -48.342503 -4.548993 2.311209 26.185426 3.783052 0.254047 4.412685 0.553418 0.428530 7.005474 0.881162 1.729669 21.481747 2.951030 4.359820 14.204234 0.456199 4.583545 -10.762725 -0.507912 1.333539 1.496571 2.960311 2.632094 -10.023435 -11.155948 -118.863408 -66.776641 163.713273 9.128067 36.816055 4.398611 -12.058970 -1.663550 -0.635233 -5.305452 -10.871869 8.618118 61.695003 -63.378969 -100.858139 0.130816 16.230455 5.088992 -19.254853 -8.181741 0.086476 23.310496 81.311616 36.775462 25.675524 -24.482199 18.931932 0.002783 -0.004216 0.001233 14.710237 -11.620722 -5.516127 4.838657 63.607332 -12.725062 2.551319 -1.487562 16.294691 0.000487 0.001348 0.000216
